%TF.GenerationSoftware,KiCad,Pcbnew,(5.1.9)-1*%
%TF.CreationDate,2021-04-24T13:42:19+02:00*%
%TF.ProjectId,PS-DC-3V3-2A,50532d44-432d-4335-9633-2d32412e6b69,V1.0*%
%TF.SameCoordinates,Original*%
%TF.FileFunction,Legend,Top*%
%TF.FilePolarity,Positive*%
%FSLAX46Y46*%
G04 Gerber Fmt 4.6, Leading zero omitted, Abs format (unit mm)*
G04 Created by KiCad (PCBNEW (5.1.9)-1) date 2021-04-24 13:42:19*
%MOMM*%
%LPD*%
G01*
G04 APERTURE LIST*
%ADD10C,0.150000*%
%ADD11C,0.125000*%
%TA.AperFunction,Profile*%
%ADD12C,0.050000*%
%TD*%
%ADD13C,0.120000*%
G04 APERTURE END LIST*
D10*
X136525047Y-100401428D02*
X137286952Y-100401428D01*
X136906000Y-100782380D02*
X136906000Y-100020476D01*
D11*
X158984190Y-101091904D02*
X159484190Y-100925238D01*
X158984190Y-100758571D01*
X159484190Y-100330000D02*
X159484190Y-100615714D01*
X159484190Y-100472857D02*
X158984190Y-100472857D01*
X159055619Y-100520476D01*
X159103238Y-100568095D01*
X159127047Y-100615714D01*
X159436571Y-100115714D02*
X159460380Y-100091904D01*
X159484190Y-100115714D01*
X159460380Y-100139523D01*
X159436571Y-100115714D01*
X159484190Y-100115714D01*
X158984190Y-99782380D02*
X158984190Y-99734761D01*
X159008000Y-99687142D01*
X159031809Y-99663333D01*
X159079428Y-99639523D01*
X159174666Y-99615714D01*
X159293714Y-99615714D01*
X159388952Y-99639523D01*
X159436571Y-99663333D01*
X159460380Y-99687142D01*
X159484190Y-99734761D01*
X159484190Y-99782380D01*
X159460380Y-99830000D01*
X159436571Y-99853809D01*
X159388952Y-99877619D01*
X159293714Y-99901428D01*
X159174666Y-99901428D01*
X159079428Y-99877619D01*
X159031809Y-99853809D01*
X159008000Y-99830000D01*
X158984190Y-99782380D01*
X159484190Y-107334476D02*
X158984190Y-107334476D01*
X158984190Y-107144000D01*
X159008000Y-107096380D01*
X159031809Y-107072571D01*
X159079428Y-107048761D01*
X159150857Y-107048761D01*
X159198476Y-107072571D01*
X159222285Y-107096380D01*
X159246095Y-107144000D01*
X159246095Y-107334476D01*
X159460380Y-106858285D02*
X159484190Y-106786857D01*
X159484190Y-106667809D01*
X159460380Y-106620190D01*
X159436571Y-106596380D01*
X159388952Y-106572571D01*
X159341333Y-106572571D01*
X159293714Y-106596380D01*
X159269904Y-106620190D01*
X159246095Y-106667809D01*
X159222285Y-106763047D01*
X159198476Y-106810666D01*
X159174666Y-106834476D01*
X159127047Y-106858285D01*
X159079428Y-106858285D01*
X159031809Y-106834476D01*
X159008000Y-106810666D01*
X158984190Y-106763047D01*
X158984190Y-106644000D01*
X159008000Y-106572571D01*
X159293714Y-106358285D02*
X159293714Y-105977333D01*
X159484190Y-105739238D02*
X158984190Y-105739238D01*
X158984190Y-105620190D01*
X159008000Y-105548761D01*
X159055619Y-105501142D01*
X159103238Y-105477333D01*
X159198476Y-105453523D01*
X159269904Y-105453523D01*
X159365142Y-105477333D01*
X159412761Y-105501142D01*
X159460380Y-105548761D01*
X159484190Y-105620190D01*
X159484190Y-105739238D01*
X159436571Y-104953523D02*
X159460380Y-104977333D01*
X159484190Y-105048761D01*
X159484190Y-105096380D01*
X159460380Y-105167809D01*
X159412761Y-105215428D01*
X159365142Y-105239238D01*
X159269904Y-105263047D01*
X159198476Y-105263047D01*
X159103238Y-105239238D01*
X159055619Y-105215428D01*
X159008000Y-105167809D01*
X158984190Y-105096380D01*
X158984190Y-105048761D01*
X159008000Y-104977333D01*
X159031809Y-104953523D01*
X159293714Y-104739238D02*
X159293714Y-104358285D01*
X158984190Y-104167809D02*
X158984190Y-103858285D01*
X159174666Y-104024952D01*
X159174666Y-103953523D01*
X159198476Y-103905904D01*
X159222285Y-103882095D01*
X159269904Y-103858285D01*
X159388952Y-103858285D01*
X159436571Y-103882095D01*
X159460380Y-103905904D01*
X159484190Y-103953523D01*
X159484190Y-104096380D01*
X159460380Y-104144000D01*
X159436571Y-104167809D01*
X158984190Y-103715428D02*
X159484190Y-103548761D01*
X158984190Y-103382095D01*
X158984190Y-103263047D02*
X158984190Y-102953523D01*
X159174666Y-103120190D01*
X159174666Y-103048761D01*
X159198476Y-103001142D01*
X159222285Y-102977333D01*
X159269904Y-102953523D01*
X159388952Y-102953523D01*
X159436571Y-102977333D01*
X159460380Y-103001142D01*
X159484190Y-103048761D01*
X159484190Y-103191619D01*
X159460380Y-103239238D01*
X159436571Y-103263047D01*
X159293714Y-102739238D02*
X159293714Y-102358285D01*
X159031809Y-102144000D02*
X159008000Y-102120190D01*
X158984190Y-102072571D01*
X158984190Y-101953523D01*
X159008000Y-101905904D01*
X159031809Y-101882095D01*
X159079428Y-101858285D01*
X159127047Y-101858285D01*
X159198476Y-101882095D01*
X159484190Y-102167809D01*
X159484190Y-101858285D01*
X159341333Y-101667809D02*
X159341333Y-101429714D01*
X159484190Y-101715428D02*
X158984190Y-101548761D01*
X159484190Y-101382095D01*
D12*
X135890000Y-93980000D02*
X160020000Y-93980000D01*
X135890000Y-107696000D02*
X135890000Y-93980000D01*
X160020000Y-107696000D02*
X135890000Y-107696000D01*
X160020000Y-93980000D02*
X160020000Y-107696000D01*
D13*
%TO.C,L1*%
X156464000Y-94996000D02*
X156464000Y-100584000D01*
X150876000Y-100584000D02*
X150876000Y-94996000D01*
%TO.C,R4*%
X155941500Y-104377258D02*
X155941500Y-103902742D01*
X156986500Y-104377258D02*
X156986500Y-103902742D01*
%TO.C,C5*%
X146140000Y-96062748D02*
X146140000Y-97485252D01*
X143420000Y-96062748D02*
X143420000Y-97485252D01*
%TO.C,C1*%
X144920580Y-99820000D02*
X144639420Y-99820000D01*
X144920580Y-100840000D02*
X144639420Y-100840000D01*
D10*
%TO.C,U1*%
X148590000Y-98426000D02*
X150090000Y-98426000D01*
X147090000Y-101726000D02*
X150090000Y-101726000D01*
D13*
%TO.C,R3*%
X149591500Y-103394742D02*
X149591500Y-103869258D01*
X150636500Y-103394742D02*
X150636500Y-103869258D01*
%TO.C,R2*%
X155939258Y-101077500D02*
X155464742Y-101077500D01*
X155939258Y-102122500D02*
X155464742Y-102122500D01*
%TO.C,R1*%
X146797500Y-103394742D02*
X146797500Y-103869258D01*
X147842500Y-103394742D02*
X147842500Y-103869258D01*
%TO.C,J1*%
X135582000Y-100756000D02*
X135582000Y-101156000D01*
X136222000Y-100756000D02*
X135582000Y-100756000D01*
X142562000Y-106776000D02*
X135822000Y-106776000D01*
X142562000Y-100996000D02*
X135822000Y-100996000D01*
X135822000Y-100996000D02*
X135822000Y-106776000D01*
X142562000Y-100996000D02*
X142562000Y-106776000D01*
X141442000Y-100996000D02*
X141442000Y-106776000D01*
X136342000Y-100996000D02*
X136342000Y-106776000D01*
%TO.C,C4*%
X159602000Y-97231252D02*
X159602000Y-95808748D01*
X156882000Y-97231252D02*
X156882000Y-95808748D01*
%TO.C,C3*%
X152259420Y-102110000D02*
X152540580Y-102110000D01*
X152259420Y-101090000D02*
X152540580Y-101090000D01*
%TO.C,C2*%
X144914252Y-101500000D02*
X144391748Y-101500000D01*
X144914252Y-102970000D02*
X144391748Y-102970000D01*
%TD*%
%TO.C,L1*%
D10*
X150566380Y-95670666D02*
X150566380Y-96146857D01*
X149566380Y-96146857D01*
X150566380Y-94813523D02*
X150566380Y-95384952D01*
X150566380Y-95099238D02*
X149566380Y-95099238D01*
X149709238Y-95194476D01*
X149804476Y-95289714D01*
X149852095Y-95384952D01*
%TO.C,R4*%
X155646380Y-105068666D02*
X155170190Y-105402000D01*
X155646380Y-105640095D02*
X154646380Y-105640095D01*
X154646380Y-105259142D01*
X154694000Y-105163904D01*
X154741619Y-105116285D01*
X154836857Y-105068666D01*
X154979714Y-105068666D01*
X155074952Y-105116285D01*
X155122571Y-105163904D01*
X155170190Y-105259142D01*
X155170190Y-105640095D01*
X154979714Y-104211523D02*
X155646380Y-104211523D01*
X154598761Y-104449619D02*
X155313047Y-104687714D01*
X155313047Y-104068666D01*
%TO.C,C5*%
X142851142Y-96940666D02*
X142898761Y-96988285D01*
X142946380Y-97131142D01*
X142946380Y-97226380D01*
X142898761Y-97369238D01*
X142803523Y-97464476D01*
X142708285Y-97512095D01*
X142517809Y-97559714D01*
X142374952Y-97559714D01*
X142184476Y-97512095D01*
X142089238Y-97464476D01*
X141994000Y-97369238D01*
X141946380Y-97226380D01*
X141946380Y-97131142D01*
X141994000Y-96988285D01*
X142041619Y-96940666D01*
X141946380Y-96035904D02*
X141946380Y-96512095D01*
X142422571Y-96559714D01*
X142374952Y-96512095D01*
X142327333Y-96416857D01*
X142327333Y-96178761D01*
X142374952Y-96083523D01*
X142422571Y-96035904D01*
X142517809Y-95988285D01*
X142755904Y-95988285D01*
X142851142Y-96035904D01*
X142898761Y-96083523D01*
X142946380Y-96178761D01*
X142946380Y-96416857D01*
X142898761Y-96512095D01*
X142851142Y-96559714D01*
%TO.C,C1*%
X142327333Y-100687142D02*
X142279714Y-100734761D01*
X142136857Y-100782380D01*
X142041619Y-100782380D01*
X141898761Y-100734761D01*
X141803523Y-100639523D01*
X141755904Y-100544285D01*
X141708285Y-100353809D01*
X141708285Y-100210952D01*
X141755904Y-100020476D01*
X141803523Y-99925238D01*
X141898761Y-99830000D01*
X142041619Y-99782380D01*
X142136857Y-99782380D01*
X142279714Y-99830000D01*
X142327333Y-99877619D01*
X143279714Y-100782380D02*
X142708285Y-100782380D01*
X142994000Y-100782380D02*
X142994000Y-99782380D01*
X142898761Y-99925238D01*
X142803523Y-100020476D01*
X142708285Y-100068095D01*
%TO.C,U1*%
X147066095Y-96988380D02*
X147066095Y-97797904D01*
X147113714Y-97893142D01*
X147161333Y-97940761D01*
X147256571Y-97988380D01*
X147447047Y-97988380D01*
X147542285Y-97940761D01*
X147589904Y-97893142D01*
X147637523Y-97797904D01*
X147637523Y-96988380D01*
X148637523Y-97988380D02*
X148066095Y-97988380D01*
X148351809Y-97988380D02*
X148351809Y-96988380D01*
X148256571Y-97131238D01*
X148161333Y-97226476D01*
X148066095Y-97274095D01*
%TO.C,R3*%
X150566380Y-106084666D02*
X150090190Y-106418000D01*
X150566380Y-106656095D02*
X149566380Y-106656095D01*
X149566380Y-106275142D01*
X149614000Y-106179904D01*
X149661619Y-106132285D01*
X149756857Y-106084666D01*
X149899714Y-106084666D01*
X149994952Y-106132285D01*
X150042571Y-106179904D01*
X150090190Y-106275142D01*
X150090190Y-106656095D01*
X149566380Y-105751333D02*
X149566380Y-105132285D01*
X149947333Y-105465619D01*
X149947333Y-105322761D01*
X149994952Y-105227523D01*
X150042571Y-105179904D01*
X150137809Y-105132285D01*
X150375904Y-105132285D01*
X150471142Y-105179904D01*
X150518761Y-105227523D01*
X150566380Y-105322761D01*
X150566380Y-105608476D01*
X150518761Y-105703714D01*
X150471142Y-105751333D01*
%TO.C,R2*%
X154773333Y-103322380D02*
X154440000Y-102846190D01*
X154201904Y-103322380D02*
X154201904Y-102322380D01*
X154582857Y-102322380D01*
X154678095Y-102370000D01*
X154725714Y-102417619D01*
X154773333Y-102512857D01*
X154773333Y-102655714D01*
X154725714Y-102750952D01*
X154678095Y-102798571D01*
X154582857Y-102846190D01*
X154201904Y-102846190D01*
X155154285Y-102417619D02*
X155201904Y-102370000D01*
X155297142Y-102322380D01*
X155535238Y-102322380D01*
X155630476Y-102370000D01*
X155678095Y-102417619D01*
X155725714Y-102512857D01*
X155725714Y-102608095D01*
X155678095Y-102750952D01*
X155106666Y-103322380D01*
X155725714Y-103322380D01*
%TO.C,R1*%
X147772380Y-106084666D02*
X147296190Y-106418000D01*
X147772380Y-106656095D02*
X146772380Y-106656095D01*
X146772380Y-106275142D01*
X146820000Y-106179904D01*
X146867619Y-106132285D01*
X146962857Y-106084666D01*
X147105714Y-106084666D01*
X147200952Y-106132285D01*
X147248571Y-106179904D01*
X147296190Y-106275142D01*
X147296190Y-106656095D01*
X147772380Y-105132285D02*
X147772380Y-105703714D01*
X147772380Y-105418000D02*
X146772380Y-105418000D01*
X146915238Y-105513238D01*
X147010476Y-105608476D01*
X147058095Y-105703714D01*
%TO.C,J1*%
X139366666Y-99782380D02*
X139366666Y-100496666D01*
X139319047Y-100639523D01*
X139223809Y-100734761D01*
X139080952Y-100782380D01*
X138985714Y-100782380D01*
X140366666Y-100782380D02*
X139795238Y-100782380D01*
X140080952Y-100782380D02*
X140080952Y-99782380D01*
X139985714Y-99925238D01*
X139890476Y-100020476D01*
X139795238Y-100068095D01*
%TO.C,C4*%
X157583142Y-99734666D02*
X157630761Y-99782285D01*
X157678380Y-99925142D01*
X157678380Y-100020380D01*
X157630761Y-100163238D01*
X157535523Y-100258476D01*
X157440285Y-100306095D01*
X157249809Y-100353714D01*
X157106952Y-100353714D01*
X156916476Y-100306095D01*
X156821238Y-100258476D01*
X156726000Y-100163238D01*
X156678380Y-100020380D01*
X156678380Y-99925142D01*
X156726000Y-99782285D01*
X156773619Y-99734666D01*
X157011714Y-98877523D02*
X157678380Y-98877523D01*
X156630761Y-99115619D02*
X157345047Y-99353714D01*
X157345047Y-98734666D01*
%TO.C,C3*%
X152233333Y-103227142D02*
X152185714Y-103274761D01*
X152042857Y-103322380D01*
X151947619Y-103322380D01*
X151804761Y-103274761D01*
X151709523Y-103179523D01*
X151661904Y-103084285D01*
X151614285Y-102893809D01*
X151614285Y-102750952D01*
X151661904Y-102560476D01*
X151709523Y-102465238D01*
X151804761Y-102370000D01*
X151947619Y-102322380D01*
X152042857Y-102322380D01*
X152185714Y-102370000D01*
X152233333Y-102417619D01*
X152566666Y-102322380D02*
X153185714Y-102322380D01*
X152852380Y-102703333D01*
X152995238Y-102703333D01*
X153090476Y-102750952D01*
X153138095Y-102798571D01*
X153185714Y-102893809D01*
X153185714Y-103131904D01*
X153138095Y-103227142D01*
X153090476Y-103274761D01*
X152995238Y-103322380D01*
X152709523Y-103322380D01*
X152614285Y-103274761D01*
X152566666Y-103227142D01*
%TO.C,C2*%
X144613333Y-104497142D02*
X144565714Y-104544761D01*
X144422857Y-104592380D01*
X144327619Y-104592380D01*
X144184761Y-104544761D01*
X144089523Y-104449523D01*
X144041904Y-104354285D01*
X143994285Y-104163809D01*
X143994285Y-104020952D01*
X144041904Y-103830476D01*
X144089523Y-103735238D01*
X144184761Y-103640000D01*
X144327619Y-103592380D01*
X144422857Y-103592380D01*
X144565714Y-103640000D01*
X144613333Y-103687619D01*
X144994285Y-103687619D02*
X145041904Y-103640000D01*
X145137142Y-103592380D01*
X145375238Y-103592380D01*
X145470476Y-103640000D01*
X145518095Y-103687619D01*
X145565714Y-103782857D01*
X145565714Y-103878095D01*
X145518095Y-104020952D01*
X144946666Y-104592380D01*
X145565714Y-104592380D01*
%TD*%
M02*
