%TF.GenerationSoftware,KiCad,Pcbnew,(5.1.9)-1*%
%TF.CreationDate,2021-04-24T13:42:19+02:00*%
%TF.ProjectId,PS-DC-3V3-2A,50532d44-432d-4335-9633-2d32412e6b69,V1.0*%
%TF.SameCoordinates,Original*%
%TF.FileFunction,Copper,L2,Bot*%
%TF.FilePolarity,Positive*%
%FSLAX46Y46*%
G04 Gerber Fmt 4.6, Leading zero omitted, Abs format (unit mm)*
G04 Created by KiCad (PCBNEW (5.1.9)-1) date 2021-04-24 13:42:19*
%MOMM*%
%LPD*%
G01*
G04 APERTURE LIST*
%TA.AperFunction,Profile*%
%ADD10C,0.050000*%
%TD*%
%TA.AperFunction,ComponentPad*%
%ADD11O,1.000000X1.000000*%
%TD*%
%TA.AperFunction,ComponentPad*%
%ADD12R,1.000000X1.000000*%
%TD*%
%TA.AperFunction,ComponentPad*%
%ADD13C,2.100000*%
%TD*%
%TA.AperFunction,ComponentPad*%
%ADD14R,2.100000X2.100000*%
%TD*%
%TA.AperFunction,ViaPad*%
%ADD15C,0.800000*%
%TD*%
%TA.AperFunction,Conductor*%
%ADD16C,0.250000*%
%TD*%
%TA.AperFunction,Conductor*%
%ADD17C,0.254000*%
%TD*%
%TA.AperFunction,Conductor*%
%ADD18C,0.100000*%
%TD*%
G04 APERTURE END LIST*
D10*
X135890000Y-93980000D02*
X160020000Y-93980000D01*
X135890000Y-107696000D02*
X135890000Y-93980000D01*
X160020000Y-107696000D02*
X135890000Y-107696000D01*
X160020000Y-93980000D02*
X160020000Y-107696000D01*
D11*
%TO.P,J2,6*%
%TO.N,SYNC*%
X158115000Y-106172000D03*
%TO.P,J2,5*%
%TO.N,\u005CReset*%
X158115000Y-104902000D03*
%TO.P,J2,4*%
%TO.N,GND*%
X158115000Y-103632000D03*
%TO.P,J2,3*%
X158115000Y-102362000D03*
%TO.P,J2,2*%
%TO.N,Vout*%
X158115000Y-101092000D03*
D12*
%TO.P,J2,1*%
X158115000Y-99822000D03*
%TD*%
D13*
%TO.P,J1,2*%
%TO.N,GND*%
X139192000Y-105156000D03*
D14*
%TO.P,J1,1*%
%TO.N,Vin*%
X139192000Y-102616000D03*
%TD*%
D15*
%TO.N,GND*%
X149860000Y-97790000D03*
X142748000Y-100330000D03*
X155956000Y-94742000D03*
X154940000Y-94742000D03*
X158242000Y-96520000D03*
X147320000Y-97790000D03*
X148590000Y-97790000D03*
X148590000Y-104394000D03*
X142494000Y-102235000D03*
X147320000Y-95250000D03*
X142240000Y-95250000D03*
X142240000Y-96520000D03*
X147320000Y-96520000D03*
X148590000Y-103378000D03*
X148590000Y-105410000D03*
%TO.N,\u005CReset*%
X142240000Y-99314000D03*
%TD*%
D16*
%TO.N,\u005CReset*%
X146304000Y-99314000D02*
X142240000Y-99314000D01*
X151892000Y-104902000D02*
X146304000Y-99314000D01*
X157861000Y-104902000D02*
X151892000Y-104902000D01*
X158115000Y-105156000D02*
X157861000Y-104902000D01*
%TD*%
D17*
%TO.N,GND*%
X159614001Y-107290000D02*
X136296000Y-107290000D01*
X136296000Y-106327066D01*
X138200539Y-106327066D01*
X138302339Y-106596579D01*
X138600477Y-106742463D01*
X138921346Y-106827380D01*
X139252617Y-106848066D01*
X139581557Y-106803728D01*
X139895527Y-106696069D01*
X140081661Y-106596579D01*
X140183461Y-106327066D01*
X139192000Y-105335605D01*
X138200539Y-106327066D01*
X136296000Y-106327066D01*
X136296000Y-105216617D01*
X137499934Y-105216617D01*
X137544272Y-105545557D01*
X137651931Y-105859527D01*
X137751421Y-106045661D01*
X138020934Y-106147461D01*
X139012395Y-105156000D01*
X138998253Y-105141858D01*
X139177858Y-104962253D01*
X139192000Y-104976395D01*
X139206143Y-104962253D01*
X139385748Y-105141858D01*
X139371605Y-105156000D01*
X140363066Y-106147461D01*
X140632579Y-106045661D01*
X140778463Y-105747523D01*
X140863380Y-105426654D01*
X140884066Y-105095383D01*
X140839728Y-104766443D01*
X140732069Y-104452473D01*
X140632579Y-104266339D01*
X140363068Y-104164540D01*
X140478609Y-104048999D01*
X140428131Y-103998521D01*
X140454696Y-103984322D01*
X140512711Y-103936711D01*
X140560322Y-103878696D01*
X140595701Y-103812508D01*
X140617487Y-103740689D01*
X140624843Y-103666000D01*
X140624843Y-101566000D01*
X140617487Y-101491311D01*
X140595701Y-101419492D01*
X140560322Y-101353304D01*
X140512711Y-101295289D01*
X140454696Y-101247678D01*
X140388508Y-101212299D01*
X140316689Y-101190513D01*
X140242000Y-101183157D01*
X138142000Y-101183157D01*
X138067311Y-101190513D01*
X137995492Y-101212299D01*
X137929304Y-101247678D01*
X137871289Y-101295289D01*
X137823678Y-101353304D01*
X137788299Y-101419492D01*
X137766513Y-101491311D01*
X137759157Y-101566000D01*
X137759157Y-103666000D01*
X137766513Y-103740689D01*
X137788299Y-103812508D01*
X137823678Y-103878696D01*
X137871289Y-103936711D01*
X137929304Y-103984322D01*
X137955869Y-103998521D01*
X137905391Y-104048999D01*
X138020932Y-104164540D01*
X137751421Y-104266339D01*
X137605537Y-104564477D01*
X137520620Y-104885346D01*
X137499934Y-105216617D01*
X136296000Y-105216617D01*
X136296000Y-99237078D01*
X141459000Y-99237078D01*
X141459000Y-99390922D01*
X141489013Y-99541809D01*
X141547887Y-99683942D01*
X141633358Y-99811859D01*
X141742141Y-99920642D01*
X141870058Y-100006113D01*
X142012191Y-100064987D01*
X142163078Y-100095000D01*
X142316922Y-100095000D01*
X142467809Y-100064987D01*
X142609942Y-100006113D01*
X142737859Y-99920642D01*
X142838501Y-99820000D01*
X146094409Y-99820000D01*
X151516628Y-105242220D01*
X151532473Y-105261527D01*
X151609521Y-105324759D01*
X151697425Y-105371745D01*
X151761786Y-105391268D01*
X151792806Y-105400678D01*
X151802694Y-105401652D01*
X151867146Y-105408000D01*
X151867153Y-105408000D01*
X151891999Y-105410447D01*
X151916845Y-105408000D01*
X157393528Y-105408000D01*
X157430682Y-105463605D01*
X157504077Y-105537000D01*
X157430682Y-105610395D01*
X157334268Y-105754690D01*
X157267856Y-105915022D01*
X157234000Y-106085229D01*
X157234000Y-106258771D01*
X157267856Y-106428978D01*
X157334268Y-106589310D01*
X157430682Y-106733605D01*
X157553395Y-106856318D01*
X157697690Y-106952732D01*
X157858022Y-107019144D01*
X158028229Y-107053000D01*
X158201771Y-107053000D01*
X158371978Y-107019144D01*
X158532310Y-106952732D01*
X158676605Y-106856318D01*
X158799318Y-106733605D01*
X158895732Y-106589310D01*
X158962144Y-106428978D01*
X158996000Y-106258771D01*
X158996000Y-106085229D01*
X158962144Y-105915022D01*
X158895732Y-105754690D01*
X158799318Y-105610395D01*
X158725923Y-105537000D01*
X158799318Y-105463605D01*
X158895732Y-105319310D01*
X158962144Y-105158978D01*
X158996000Y-104988771D01*
X158996000Y-104815229D01*
X158962144Y-104645022D01*
X158895732Y-104484690D01*
X158880859Y-104462431D01*
X158973865Y-104374020D01*
X159102123Y-104192206D01*
X159192446Y-103988864D01*
X159209119Y-103933874D01*
X159082954Y-103759000D01*
X158242000Y-103759000D01*
X158242000Y-103779000D01*
X157988000Y-103779000D01*
X157988000Y-103759000D01*
X157147046Y-103759000D01*
X157020881Y-103933874D01*
X157037554Y-103988864D01*
X157127877Y-104192206D01*
X157256135Y-104374020D01*
X157279257Y-104396000D01*
X152101592Y-104396000D01*
X150369466Y-102663874D01*
X157020881Y-102663874D01*
X157037554Y-102718864D01*
X157127877Y-102922206D01*
X157180639Y-102997000D01*
X157127877Y-103071794D01*
X157037554Y-103275136D01*
X157020881Y-103330126D01*
X157147046Y-103505000D01*
X157988000Y-103505000D01*
X157988000Y-102489000D01*
X158242000Y-102489000D01*
X158242000Y-103505000D01*
X159082954Y-103505000D01*
X159209119Y-103330126D01*
X159192446Y-103275136D01*
X159102123Y-103071794D01*
X159049361Y-102997000D01*
X159102123Y-102922206D01*
X159192446Y-102718864D01*
X159209119Y-102663874D01*
X159082954Y-102489000D01*
X158242000Y-102489000D01*
X157988000Y-102489000D01*
X157147046Y-102489000D01*
X157020881Y-102663874D01*
X150369466Y-102663874D01*
X149765718Y-102060126D01*
X157020881Y-102060126D01*
X157147046Y-102235000D01*
X157988000Y-102235000D01*
X157988000Y-102215000D01*
X158242000Y-102215000D01*
X158242000Y-102235000D01*
X159082954Y-102235000D01*
X159209119Y-102060126D01*
X159192446Y-102005136D01*
X159102123Y-101801794D01*
X158973865Y-101619980D01*
X158880859Y-101531569D01*
X158895732Y-101509310D01*
X158962144Y-101348978D01*
X158996000Y-101178771D01*
X158996000Y-101005229D01*
X158962144Y-100835022D01*
X158895732Y-100674690D01*
X158856806Y-100616432D01*
X158885711Y-100592711D01*
X158933322Y-100534696D01*
X158968701Y-100468508D01*
X158990487Y-100396689D01*
X158997843Y-100322000D01*
X158997843Y-99322000D01*
X158990487Y-99247311D01*
X158968701Y-99175492D01*
X158933322Y-99109304D01*
X158885711Y-99051289D01*
X158827696Y-99003678D01*
X158761508Y-98968299D01*
X158689689Y-98946513D01*
X158615000Y-98939157D01*
X157615000Y-98939157D01*
X157540311Y-98946513D01*
X157468492Y-98968299D01*
X157402304Y-99003678D01*
X157344289Y-99051289D01*
X157296678Y-99109304D01*
X157261299Y-99175492D01*
X157239513Y-99247311D01*
X157232157Y-99322000D01*
X157232157Y-100322000D01*
X157239513Y-100396689D01*
X157261299Y-100468508D01*
X157296678Y-100534696D01*
X157344289Y-100592711D01*
X157373194Y-100616432D01*
X157334268Y-100674690D01*
X157267856Y-100835022D01*
X157234000Y-101005229D01*
X157234000Y-101178771D01*
X157267856Y-101348978D01*
X157334268Y-101509310D01*
X157349141Y-101531569D01*
X157256135Y-101619980D01*
X157127877Y-101801794D01*
X157037554Y-102005136D01*
X157020881Y-102060126D01*
X149765718Y-102060126D01*
X146679376Y-98973785D01*
X146663527Y-98954473D01*
X146586479Y-98891241D01*
X146498575Y-98844255D01*
X146403193Y-98815322D01*
X146328854Y-98808000D01*
X146328846Y-98808000D01*
X146304000Y-98805553D01*
X146279154Y-98808000D01*
X142838501Y-98808000D01*
X142737859Y-98707358D01*
X142609942Y-98621887D01*
X142467809Y-98563013D01*
X142316922Y-98533000D01*
X142163078Y-98533000D01*
X142012191Y-98563013D01*
X141870058Y-98621887D01*
X141742141Y-98707358D01*
X141633358Y-98816141D01*
X141547887Y-98944058D01*
X141489013Y-99086191D01*
X141459000Y-99237078D01*
X136296000Y-99237078D01*
X136296000Y-94386000D01*
X159614000Y-94386000D01*
X159614001Y-107290000D01*
%TA.AperFunction,Conductor*%
D18*
G36*
X159614001Y-107290000D02*
G01*
X136296000Y-107290000D01*
X136296000Y-106327066D01*
X138200539Y-106327066D01*
X138302339Y-106596579D01*
X138600477Y-106742463D01*
X138921346Y-106827380D01*
X139252617Y-106848066D01*
X139581557Y-106803728D01*
X139895527Y-106696069D01*
X140081661Y-106596579D01*
X140183461Y-106327066D01*
X139192000Y-105335605D01*
X138200539Y-106327066D01*
X136296000Y-106327066D01*
X136296000Y-105216617D01*
X137499934Y-105216617D01*
X137544272Y-105545557D01*
X137651931Y-105859527D01*
X137751421Y-106045661D01*
X138020934Y-106147461D01*
X139012395Y-105156000D01*
X138998253Y-105141858D01*
X139177858Y-104962253D01*
X139192000Y-104976395D01*
X139206143Y-104962253D01*
X139385748Y-105141858D01*
X139371605Y-105156000D01*
X140363066Y-106147461D01*
X140632579Y-106045661D01*
X140778463Y-105747523D01*
X140863380Y-105426654D01*
X140884066Y-105095383D01*
X140839728Y-104766443D01*
X140732069Y-104452473D01*
X140632579Y-104266339D01*
X140363068Y-104164540D01*
X140478609Y-104048999D01*
X140428131Y-103998521D01*
X140454696Y-103984322D01*
X140512711Y-103936711D01*
X140560322Y-103878696D01*
X140595701Y-103812508D01*
X140617487Y-103740689D01*
X140624843Y-103666000D01*
X140624843Y-101566000D01*
X140617487Y-101491311D01*
X140595701Y-101419492D01*
X140560322Y-101353304D01*
X140512711Y-101295289D01*
X140454696Y-101247678D01*
X140388508Y-101212299D01*
X140316689Y-101190513D01*
X140242000Y-101183157D01*
X138142000Y-101183157D01*
X138067311Y-101190513D01*
X137995492Y-101212299D01*
X137929304Y-101247678D01*
X137871289Y-101295289D01*
X137823678Y-101353304D01*
X137788299Y-101419492D01*
X137766513Y-101491311D01*
X137759157Y-101566000D01*
X137759157Y-103666000D01*
X137766513Y-103740689D01*
X137788299Y-103812508D01*
X137823678Y-103878696D01*
X137871289Y-103936711D01*
X137929304Y-103984322D01*
X137955869Y-103998521D01*
X137905391Y-104048999D01*
X138020932Y-104164540D01*
X137751421Y-104266339D01*
X137605537Y-104564477D01*
X137520620Y-104885346D01*
X137499934Y-105216617D01*
X136296000Y-105216617D01*
X136296000Y-99237078D01*
X141459000Y-99237078D01*
X141459000Y-99390922D01*
X141489013Y-99541809D01*
X141547887Y-99683942D01*
X141633358Y-99811859D01*
X141742141Y-99920642D01*
X141870058Y-100006113D01*
X142012191Y-100064987D01*
X142163078Y-100095000D01*
X142316922Y-100095000D01*
X142467809Y-100064987D01*
X142609942Y-100006113D01*
X142737859Y-99920642D01*
X142838501Y-99820000D01*
X146094409Y-99820000D01*
X151516628Y-105242220D01*
X151532473Y-105261527D01*
X151609521Y-105324759D01*
X151697425Y-105371745D01*
X151761786Y-105391268D01*
X151792806Y-105400678D01*
X151802694Y-105401652D01*
X151867146Y-105408000D01*
X151867153Y-105408000D01*
X151891999Y-105410447D01*
X151916845Y-105408000D01*
X157393528Y-105408000D01*
X157430682Y-105463605D01*
X157504077Y-105537000D01*
X157430682Y-105610395D01*
X157334268Y-105754690D01*
X157267856Y-105915022D01*
X157234000Y-106085229D01*
X157234000Y-106258771D01*
X157267856Y-106428978D01*
X157334268Y-106589310D01*
X157430682Y-106733605D01*
X157553395Y-106856318D01*
X157697690Y-106952732D01*
X157858022Y-107019144D01*
X158028229Y-107053000D01*
X158201771Y-107053000D01*
X158371978Y-107019144D01*
X158532310Y-106952732D01*
X158676605Y-106856318D01*
X158799318Y-106733605D01*
X158895732Y-106589310D01*
X158962144Y-106428978D01*
X158996000Y-106258771D01*
X158996000Y-106085229D01*
X158962144Y-105915022D01*
X158895732Y-105754690D01*
X158799318Y-105610395D01*
X158725923Y-105537000D01*
X158799318Y-105463605D01*
X158895732Y-105319310D01*
X158962144Y-105158978D01*
X158996000Y-104988771D01*
X158996000Y-104815229D01*
X158962144Y-104645022D01*
X158895732Y-104484690D01*
X158880859Y-104462431D01*
X158973865Y-104374020D01*
X159102123Y-104192206D01*
X159192446Y-103988864D01*
X159209119Y-103933874D01*
X159082954Y-103759000D01*
X158242000Y-103759000D01*
X158242000Y-103779000D01*
X157988000Y-103779000D01*
X157988000Y-103759000D01*
X157147046Y-103759000D01*
X157020881Y-103933874D01*
X157037554Y-103988864D01*
X157127877Y-104192206D01*
X157256135Y-104374020D01*
X157279257Y-104396000D01*
X152101592Y-104396000D01*
X150369466Y-102663874D01*
X157020881Y-102663874D01*
X157037554Y-102718864D01*
X157127877Y-102922206D01*
X157180639Y-102997000D01*
X157127877Y-103071794D01*
X157037554Y-103275136D01*
X157020881Y-103330126D01*
X157147046Y-103505000D01*
X157988000Y-103505000D01*
X157988000Y-102489000D01*
X158242000Y-102489000D01*
X158242000Y-103505000D01*
X159082954Y-103505000D01*
X159209119Y-103330126D01*
X159192446Y-103275136D01*
X159102123Y-103071794D01*
X159049361Y-102997000D01*
X159102123Y-102922206D01*
X159192446Y-102718864D01*
X159209119Y-102663874D01*
X159082954Y-102489000D01*
X158242000Y-102489000D01*
X157988000Y-102489000D01*
X157147046Y-102489000D01*
X157020881Y-102663874D01*
X150369466Y-102663874D01*
X149765718Y-102060126D01*
X157020881Y-102060126D01*
X157147046Y-102235000D01*
X157988000Y-102235000D01*
X157988000Y-102215000D01*
X158242000Y-102215000D01*
X158242000Y-102235000D01*
X159082954Y-102235000D01*
X159209119Y-102060126D01*
X159192446Y-102005136D01*
X159102123Y-101801794D01*
X158973865Y-101619980D01*
X158880859Y-101531569D01*
X158895732Y-101509310D01*
X158962144Y-101348978D01*
X158996000Y-101178771D01*
X158996000Y-101005229D01*
X158962144Y-100835022D01*
X158895732Y-100674690D01*
X158856806Y-100616432D01*
X158885711Y-100592711D01*
X158933322Y-100534696D01*
X158968701Y-100468508D01*
X158990487Y-100396689D01*
X158997843Y-100322000D01*
X158997843Y-99322000D01*
X158990487Y-99247311D01*
X158968701Y-99175492D01*
X158933322Y-99109304D01*
X158885711Y-99051289D01*
X158827696Y-99003678D01*
X158761508Y-98968299D01*
X158689689Y-98946513D01*
X158615000Y-98939157D01*
X157615000Y-98939157D01*
X157540311Y-98946513D01*
X157468492Y-98968299D01*
X157402304Y-99003678D01*
X157344289Y-99051289D01*
X157296678Y-99109304D01*
X157261299Y-99175492D01*
X157239513Y-99247311D01*
X157232157Y-99322000D01*
X157232157Y-100322000D01*
X157239513Y-100396689D01*
X157261299Y-100468508D01*
X157296678Y-100534696D01*
X157344289Y-100592711D01*
X157373194Y-100616432D01*
X157334268Y-100674690D01*
X157267856Y-100835022D01*
X157234000Y-101005229D01*
X157234000Y-101178771D01*
X157267856Y-101348978D01*
X157334268Y-101509310D01*
X157349141Y-101531569D01*
X157256135Y-101619980D01*
X157127877Y-101801794D01*
X157037554Y-102005136D01*
X157020881Y-102060126D01*
X149765718Y-102060126D01*
X146679376Y-98973785D01*
X146663527Y-98954473D01*
X146586479Y-98891241D01*
X146498575Y-98844255D01*
X146403193Y-98815322D01*
X146328854Y-98808000D01*
X146328846Y-98808000D01*
X146304000Y-98805553D01*
X146279154Y-98808000D01*
X142838501Y-98808000D01*
X142737859Y-98707358D01*
X142609942Y-98621887D01*
X142467809Y-98563013D01*
X142316922Y-98533000D01*
X142163078Y-98533000D01*
X142012191Y-98563013D01*
X141870058Y-98621887D01*
X141742141Y-98707358D01*
X141633358Y-98816141D01*
X141547887Y-98944058D01*
X141489013Y-99086191D01*
X141459000Y-99237078D01*
X136296000Y-99237078D01*
X136296000Y-94386000D01*
X159614000Y-94386000D01*
X159614001Y-107290000D01*
G37*
%TD.AperFunction*%
%TD*%
M02*
