%TF.GenerationSoftware,KiCad,Pcbnew,(5.1.9)-1*%
%TF.CreationDate,2021-04-24T13:42:19+02:00*%
%TF.ProjectId,PS-DC-3V3-2A,50532d44-432d-4335-9633-2d32412e6b69,V1.0*%
%TF.SameCoordinates,Original*%
%TF.FileFunction,Legend,Bot*%
%TF.FilePolarity,Positive*%
%FSLAX46Y46*%
G04 Gerber Fmt 4.6, Leading zero omitted, Abs format (unit mm)*
G04 Created by KiCad (PCBNEW (5.1.9)-1) date 2021-04-24 13:42:19*
%MOMM*%
%LPD*%
G01*
G04 APERTURE LIST*
%ADD10C,0.150000*%
%TA.AperFunction,Profile*%
%ADD11C,0.050000*%
%TD*%
%ADD12C,0.120000*%
G04 APERTURE END LIST*
D10*
X156424095Y-106830761D02*
X156281238Y-106878380D01*
X156043142Y-106878380D01*
X155947904Y-106830761D01*
X155900285Y-106783142D01*
X155852666Y-106687904D01*
X155852666Y-106592666D01*
X155900285Y-106497428D01*
X155947904Y-106449809D01*
X156043142Y-106402190D01*
X156233619Y-106354571D01*
X156328857Y-106306952D01*
X156376476Y-106259333D01*
X156424095Y-106164095D01*
X156424095Y-106068857D01*
X156376476Y-105973619D01*
X156328857Y-105926000D01*
X156233619Y-105878380D01*
X155995523Y-105878380D01*
X155852666Y-105926000D01*
X155233619Y-106402190D02*
X155233619Y-106878380D01*
X155566952Y-105878380D02*
X155233619Y-106402190D01*
X154900285Y-105878380D01*
X154566952Y-106878380D02*
X154566952Y-105878380D01*
X153995523Y-106878380D01*
X153995523Y-105878380D01*
X152947904Y-106783142D02*
X152995523Y-106830761D01*
X153138380Y-106878380D01*
X153233619Y-106878380D01*
X153376476Y-106830761D01*
X153471714Y-106735523D01*
X153519333Y-106640285D01*
X153566952Y-106449809D01*
X153566952Y-106306952D01*
X153519333Y-106116476D01*
X153471714Y-106021238D01*
X153376476Y-105926000D01*
X153233619Y-105878380D01*
X153138380Y-105878380D01*
X152995523Y-105926000D01*
X152947904Y-105973619D01*
X156614476Y-104513142D02*
X155757333Y-105798857D01*
X155043047Y-105608380D02*
X155376380Y-105132190D01*
X155614476Y-105608380D02*
X155614476Y-104608380D01*
X155233523Y-104608380D01*
X155138285Y-104656000D01*
X155090666Y-104703619D01*
X155043047Y-104798857D01*
X155043047Y-104941714D01*
X155090666Y-105036952D01*
X155138285Y-105084571D01*
X155233523Y-105132190D01*
X155614476Y-105132190D01*
X154614476Y-105084571D02*
X154281142Y-105084571D01*
X154138285Y-105608380D02*
X154614476Y-105608380D01*
X154614476Y-104608380D01*
X154138285Y-104608380D01*
X153757333Y-105560761D02*
X153614476Y-105608380D01*
X153376380Y-105608380D01*
X153281142Y-105560761D01*
X153233523Y-105513142D01*
X153185904Y-105417904D01*
X153185904Y-105322666D01*
X153233523Y-105227428D01*
X153281142Y-105179809D01*
X153376380Y-105132190D01*
X153566857Y-105084571D01*
X153662095Y-105036952D01*
X153709714Y-104989333D01*
X153757333Y-104894095D01*
X153757333Y-104798857D01*
X153709714Y-104703619D01*
X153662095Y-104656000D01*
X153566857Y-104608380D01*
X153328761Y-104608380D01*
X153185904Y-104656000D01*
X152757333Y-105084571D02*
X152424000Y-105084571D01*
X152281142Y-105608380D02*
X152757333Y-105608380D01*
X152757333Y-104608380D01*
X152281142Y-104608380D01*
X151995428Y-104608380D02*
X151424000Y-104608380D01*
X151709714Y-105608380D02*
X151709714Y-104608380D01*
X155955904Y-103386000D02*
X156051142Y-103338380D01*
X156194000Y-103338380D01*
X156336857Y-103386000D01*
X156432095Y-103481238D01*
X156479714Y-103576476D01*
X156527333Y-103766952D01*
X156527333Y-103909809D01*
X156479714Y-104100285D01*
X156432095Y-104195523D01*
X156336857Y-104290761D01*
X156194000Y-104338380D01*
X156098761Y-104338380D01*
X155955904Y-104290761D01*
X155908285Y-104243142D01*
X155908285Y-103909809D01*
X156098761Y-103909809D01*
X155479714Y-104338380D02*
X155479714Y-103338380D01*
X154908285Y-104338380D01*
X154908285Y-103338380D01*
X154432095Y-104338380D02*
X154432095Y-103338380D01*
X154194000Y-103338380D01*
X154051142Y-103386000D01*
X153955904Y-103481238D01*
X153908285Y-103576476D01*
X153860666Y-103766952D01*
X153860666Y-103909809D01*
X153908285Y-104100285D01*
X153955904Y-104195523D01*
X154051142Y-104290761D01*
X154194000Y-104338380D01*
X154432095Y-104338380D01*
X156717809Y-99528380D02*
X156384476Y-100528380D01*
X156051142Y-99528380D01*
X155574952Y-100528380D02*
X155670190Y-100480761D01*
X155717809Y-100433142D01*
X155765428Y-100337904D01*
X155765428Y-100052190D01*
X155717809Y-99956952D01*
X155670190Y-99909333D01*
X155574952Y-99861714D01*
X155432095Y-99861714D01*
X155336857Y-99909333D01*
X155289238Y-99956952D01*
X155241619Y-100052190D01*
X155241619Y-100337904D01*
X155289238Y-100433142D01*
X155336857Y-100480761D01*
X155432095Y-100528380D01*
X155574952Y-100528380D01*
X154384476Y-99861714D02*
X154384476Y-100528380D01*
X154813047Y-99861714D02*
X154813047Y-100385523D01*
X154765428Y-100480761D01*
X154670190Y-100528380D01*
X154527333Y-100528380D01*
X154432095Y-100480761D01*
X154384476Y-100433142D01*
X154051142Y-99861714D02*
X153670190Y-99861714D01*
X153908285Y-99528380D02*
X153908285Y-100385523D01*
X153860666Y-100480761D01*
X153765428Y-100528380D01*
X153670190Y-100528380D01*
X156717809Y-100798380D02*
X156384476Y-101798380D01*
X156051142Y-100798380D01*
X155574952Y-101798380D02*
X155670190Y-101750761D01*
X155717809Y-101703142D01*
X155765428Y-101607904D01*
X155765428Y-101322190D01*
X155717809Y-101226952D01*
X155670190Y-101179333D01*
X155574952Y-101131714D01*
X155432095Y-101131714D01*
X155336857Y-101179333D01*
X155289238Y-101226952D01*
X155241619Y-101322190D01*
X155241619Y-101607904D01*
X155289238Y-101703142D01*
X155336857Y-101750761D01*
X155432095Y-101798380D01*
X155574952Y-101798380D01*
X154384476Y-101131714D02*
X154384476Y-101798380D01*
X154813047Y-101131714D02*
X154813047Y-101655523D01*
X154765428Y-101750761D01*
X154670190Y-101798380D01*
X154527333Y-101798380D01*
X154432095Y-101750761D01*
X154384476Y-101703142D01*
X154051142Y-101131714D02*
X153670190Y-101131714D01*
X153908285Y-100798380D02*
X153908285Y-101655523D01*
X153860666Y-101750761D01*
X153765428Y-101798380D01*
X153670190Y-101798380D01*
X155955904Y-102116000D02*
X156051142Y-102068380D01*
X156194000Y-102068380D01*
X156336857Y-102116000D01*
X156432095Y-102211238D01*
X156479714Y-102306476D01*
X156527333Y-102496952D01*
X156527333Y-102639809D01*
X156479714Y-102830285D01*
X156432095Y-102925523D01*
X156336857Y-103020761D01*
X156194000Y-103068380D01*
X156098761Y-103068380D01*
X155955904Y-103020761D01*
X155908285Y-102973142D01*
X155908285Y-102639809D01*
X156098761Y-102639809D01*
X155479714Y-103068380D02*
X155479714Y-102068380D01*
X154908285Y-103068380D01*
X154908285Y-102068380D01*
X154432095Y-103068380D02*
X154432095Y-102068380D01*
X154194000Y-102068380D01*
X154051142Y-102116000D01*
X153955904Y-102211238D01*
X153908285Y-102306476D01*
X153860666Y-102496952D01*
X153860666Y-102639809D01*
X153908285Y-102830285D01*
X153955904Y-102925523D01*
X154051142Y-103020761D01*
X154194000Y-103068380D01*
X154432095Y-103068380D01*
D11*
X135890000Y-93980000D02*
X160020000Y-93980000D01*
X135890000Y-107696000D02*
X135890000Y-93980000D01*
X160020000Y-107696000D02*
X135890000Y-107696000D01*
X160020000Y-93980000D02*
X160020000Y-107696000D01*
D12*
%TO.C,J2*%
X159225000Y-106867000D02*
X158422530Y-106867000D01*
X157807470Y-106867000D02*
X157005000Y-106867000D01*
X159225000Y-100582000D02*
X159225000Y-106867000D01*
X157005000Y-100582000D02*
X157005000Y-106867000D01*
X159225000Y-100582000D02*
X158678471Y-100582000D01*
X157551529Y-100582000D02*
X157005000Y-100582000D01*
X159225000Y-99822000D02*
X159225000Y-99062000D01*
X159225000Y-99062000D02*
X158115000Y-99062000D01*
%TD*%
%TO.C,J2*%
D10*
X158448333Y-97579380D02*
X158448333Y-98293666D01*
X158495952Y-98436523D01*
X158591190Y-98531761D01*
X158734047Y-98579380D01*
X158829285Y-98579380D01*
X158019761Y-97674619D02*
X157972142Y-97627000D01*
X157876904Y-97579380D01*
X157638809Y-97579380D01*
X157543571Y-97627000D01*
X157495952Y-97674619D01*
X157448333Y-97769857D01*
X157448333Y-97865095D01*
X157495952Y-98007952D01*
X158067380Y-98579380D01*
X157448333Y-98579380D01*
%TD*%
M02*
