M48
; DRILL file {KiCad (5.1.9)-1} date 04/13/21 21:47:23
; FORMAT={-:-/ absolute / inch / decimal}
; #@! TF.CreationDate,2021-04-13T21:47:23+02:00
; #@! TF.GenerationSoftware,Kicad,Pcbnew,(5.1.9)-1
; #@! TF.FileFunction,Plated,1,2,PTH
FMAT,2
INCH
T1C0.0157
T2C0.0256
T3C0.0433
%
G90
G05
T1
X5.6Y-3.75
X5.6Y-3.8
X5.6Y-3.91
X5.61Y-4.025
X5.62Y-3.95
X5.8Y-3.75
X5.8Y-3.8
X5.8Y-3.85
X5.85Y-3.85
X5.85Y-4.07
X5.85Y-4.11
X5.85Y-4.15
X5.9Y-3.85
X6.1Y-3.73
X6.14Y-3.73
X6.23Y-3.8
T2
X6.225Y-3.93
X6.225Y-3.98
X6.225Y-4.03
X6.225Y-4.08
X6.225Y-4.13
X6.225Y-4.18
T3
X5.48Y-4.04
X5.48Y-4.14
T0
M30
